<svg viewBox="0 0 1200 1200" xmlns="http://www.w3.org/2000/svg" fill="currentColor">
 <path d="m190.34 621.71c-12.816 0-23.25 10.434-23.25 23.254v438.34c0 12.816 10.434 23.254 23.25 23.254h819.34c12.816 0 23.246-10.43 23.246-23.25v-438.34c0-12.824-10.434-23.254-23.25-23.254h-819.33zm819.34 507.98h-819.34c-25.586 0-46.379-20.816-46.379-46.379v-438.34c0-25.578 20.793-46.387 46.379-46.387h819.34c25.562 0 46.379 20.812 46.379 46.387v438.34c0 25.562-20.816 46.379-46.379 46.379z"/>
 <path d="m599.99 945.34c-2.3867 0-4.7734-0.73438-6.7969-2.2109l-432.59-314.97c-5.1562-3.7617-6.2891-10.992-2.5312-16.156 3.7617-5.168 10.988-6.3047 16.141-2.543l425.8 310.02 426.06-309.77c5.1562-3.7578 12.383-2.6133 16.141 2.5547 3.7578 5.168 2.625 12.398-2.5547 16.152l-432.86 314.71c-2.0508 1.4766-4.4336 2.2109-6.8203 2.2109z" fill-rule="evenodd"/>
 <path d="m1032.6 1121c-2.3594 0-4.7461-0.72266-6.8203-2.2148l-336.92-245.32c-5.1797-3.7617-6.3125-10.992-2.5547-16.156 3.7617-5.1641 11.012-6.3008 16.168-2.543l336.92 245.32c5.1797 3.7617 6.3125 11.012 2.5508 16.168-2.2656 3.1055-5.7812 4.7461-9.3477 4.7461zm-865.16 0c-3.5664 0-7.0859-1.6367-9.3516-4.7461-3.7578-5.1562-2.625-12.406 2.5312-16.168l336.94-245.32c5.1562-3.7578 12.383-2.6172 16.141 2.543 3.7812 5.1641 2.625 12.398-2.5312 16.156l-336.94 245.32c-2.0469 1.5195-4.4336 2.2148-6.793 2.2148z" />
 <path d="m556.28 505.26h87.434v-239.36c0-6.3906 5.1562-11.562 11.566-11.562l30.934-0.003906-86.227-149.33-86.207 149.33h30.938c6.3828 0 11.562 5.1797 11.562 11.566zm99 23.129h-110.56c-6.3867 0-11.566-5.1797-11.566-11.566v-239.36h-39.414c-4.1211 0-7.9531-2.2031-10-5.7852-2.0703-3.5781-2.0703-7.9844 0-11.562l106.25-184.03c2.0508-3.582 5.8789-5.7812 9.9961-5.7812 4.1445 0 7.9492 2.2031 10.023 5.7812l106.25 184.03c2.0703 3.5781 2.0703 7.9883-0.003907 11.562-2.0742 3.5781-5.8789 5.7852-10.023 5.7852h-39.391v239.36c0 6.3867-5.1836 11.566-11.566 11.566z"/>
</svg>
