<svg viewBox="0 0 1200 1200" xmlns="http://www.w3.org/2000/svg" fill="currentColor">
 <path d="m874.3 843.43-102.29-34.094-36.719-73.441c33.086-33.672 56.051-78.227 63.793-124.69l4.5859-27.457h39.168l-0.003907 0.003906c17.117-0.019531 33.527-6.8281 45.629-18.934 12.105-12.102 18.91-28.512 18.93-45.629v-135.6c0-178-144.82-322.8-322.8-322.8-178.45 0-322.8 144.39-322.8 322.8v135.6h0.003907c0.011719 13.344 4.1523 26.355 11.855 37.25 7.6992 10.898 18.578 19.145 31.152 23.613v25.203c0.019531 17.113 6.832 33.523 18.934 45.625 12.102 12.102 28.512 18.91 45.625 18.934h18.902c9.3047 20.262 21.465 39.082 36.105 55.895 3.0352 3.5039 6.2148 6.8984 9.4805 10.199l-36.648 73.43-102.29 34.094c-118.93 39.602-205.2 164.87-205.2 297.71 0.003906 5.707 2.2734 11.18 6.3125 15.215 4.0352 4.0352 9.5078 6.3008 15.215 6.3008h946.79c5.6992 0 11.164-2.2578 15.199-6.2812 4.0352-4.0195 6.3086-9.4766 6.3281-15.176 0-132.9-86.328-258.11-205.26-297.77zm-9.9492-324.24v-0.003906c-0.019531 5.7031-2.293 11.164-6.3203 15.199-4.0312 4.0312-9.4922 6.3086-15.195 6.3281h-32.832c5.4609-42.371 9.1094-87.469 10.57-131.88 0-1.1992 0.085938-2.4727 0.12109-3.707h43.668zm-537.95 21.523c-5.7148 0-11.199-2.2656-15.246-6.3008-4.0508-4.0352-6.332-9.5117-6.3516-15.227v-114.06h43.68c0.070312 2.2422 0.15625 4.5 0.23828 6.7812v0.22656c1.5117 43.199 5.1133 87.121 10.453 128.57zm43.031 86.074 0.003906 0.003906c-5.7031-0.023437-11.16-2.2969-15.191-6.3281s-6.3047-9.4883-6.3281-15.188v-21.527h17.641l4.5859 27.469c0.87891 5.2148 1.9453 10.414 3.1914 15.602zm-21.48-264.7-42.32 0.003906c10.906-144.24 131.27-258.25 278.95-258.25 147.02 0 267.93 114 278.95 258.25h-42.266c-1.5508-118.86-98.328-215.21-217.43-215.21h-38.52c-119.09 0-215.88 96.348-217.43 215.21zm217.37-172.16h38.52c96.434 0 174.48 78.875 174.42 175.2 0 6.7695 0 12.66-0.16797 18v0.21484l-26.895-3.8281c-73.562-10.664-141.73-44.746-194.4-97.199-4.043-4.0547-9.5391-6.332-15.266-6.3242-28.621 0.074219-56.871 6.457-82.746 18.695-25.871 12.238-48.727 30.027-66.941 52.105 9.0117-87.602 83.09-156.86 173.47-156.86zm-147.43 436.86c-10.801-35.832-23.102-141.29-25.824-208.86l28.957-38.617c26.742-35.449 67.691-57.383 112.02-60 58.359 55.371 132.44 91.297 212.05 102.84l31.68 4.5234c-2.1133 44.953-6.4453 90-12.648 131.53-1.9688 13.332-3.5273 21.91-7.5 45.887-11.387 68.398-62.398 130.18-129.73 147.01l-0.003906 0.003907c-27.777 6.918-56.832 6.918-84.609 0-42-10.512-80.594-39.602-105.47-81.301h43.871c4.4609 12.578 12.703 23.465 23.598 31.172 10.898 7.707 23.91 11.855 37.254 11.871h43.043c22.859-0.3125 43.848-12.684 55.188-32.535 11.34-19.848 11.34-44.211 0-64.062-11.34-19.848-32.328-32.223-55.188-32.535h-43.043c-13.352 0-26.379 4.1367-37.285 11.848-10.902 7.707-19.148 18.609-23.602 31.199zm121.85 167.89c26.336 5.5898 53.48 6.2031 80.043 1.8125l-38.027 40.211zm12.422 73.309-68.258 72.18c-18.801-35.996-34.906-73.34-48.18-111.72l25.633-51.266zm152-98.102 29.281 58.559v0.003906c-13.289 38.395-29.414 75.75-48.242 111.75l-73.055-73.055zm-184.14-121.57c0-5.707 2.2656-11.18 6.3008-15.219 4.0352-4.0352 9.5078-6.3047 15.215-6.3086h43.043c7.5703 0.17969 14.488 4.3203 18.223 10.902 3.7305 6.5859 3.7305 14.648 0 21.234-3.7344 6.5859-10.652 10.727-18.223 10.906h-43.043c-5.6992-0.023438-11.16-2.2969-15.188-6.3281-4.0312-4.0273-6.3047-9.4883-6.3281-15.188zm-386.51 471.28c8.5312-106.61 79.477-203.51 174.96-235.34l90.602-30.191-0.003907-0.003906c16.605 45.941 37.078 90.391 61.203 132.87l0.12109 0.21484h-0.003906c17.75 31.195 37.422 61.254 58.91 90l26.52 42.457zm451.07-19.199-29.184-46.801c-0.32422-0.52734-0.67188-1.0312-1.043-1.5234v-0.003906c-17.43-23.273-33.617-47.457-48.492-72.441l76.801-81.168 80.867 80.867c-14.91 25.094-31.156 49.371-48.66 72.73-1.1016 1.3828 0.39844-0.86328-30.289 48.336zm38.762 19.199 26.473-42.492c21.652-28.965 41.465-59.262 59.316-90.711l0.32422-0.57422c23.863-42.133 44.141-86.199 60.609-131.73l90.59 30.191c95.52 31.824 166.48 128.72 174.95 235.32z"/>
 <path d="m839 912c0 5.625-2.2344 11.02-6.2109 14.996-3.9766 3.9766-9.3711 6.207-14.996 6.207s-11.02-2.2344-14.996-6.2148c-3.9727-3.9766-6.207-9.3711-6.2031-14.996 0-5.625 2.2383-11.02 6.2148-14.992 3.9805-3.9766 9.375-6.207 15-6.2031 5.6211 0.003906 11.012 2.2383 14.984 6.2148 3.9766 3.9766 6.207 9.3672 6.207 14.988zm66.238 23.664c-6.0117-4.4375-13.918-5.3828-20.805-2.4844-6.8906 2.8945-11.746 9.207-12.781 16.605-1.0352 7.4023 1.8984 14.801 7.7266 19.48 20.156 15.551 36.543 35.449 47.941 58.211 2.4844 5.0781 6.8984 8.9531 12.254 10.762 5.3555 1.8125 11.211 1.4062 16.27-1.1211 5.0586-2.5273 8.8945-6.9688 10.664-12.34 1.7656-5.3711 1.3125-11.227-1.2539-16.262-14.277-28.484-34.789-53.387-60.016-72.852z"/>
</svg>
